<svg width="256" height="256" viewBox="0 0 256 256" fill="none" xmlns="http://www.w3.org/2000/svg">
  <defs>
    <linearGradient id="sparkGrad" x1="128" y1="32" x2="128" y2="160" gradientUnits="userSpaceOnUse">
      <stop offset="0%" stop-color="#FEF08A" />
      <stop offset="50%" stop-color="#F59E0B" />
      <stop offset="100%" stop-color="#EA580C" />
    </linearGradient>

    <linearGradient id="glassStroke" x1="64" y1="32" x2="192" y2="176" gradientUnits="userSpaceOnUse">
      <stop offset="0%" stop-color="#2DD4BF" />
      <stop offset="100%" stop-color="#0EA5E9" />
    </linearGradient>

    <linearGradient id="baseGrad" x1="96" y1="176" x2="160" y2="224" gradientUnits="userSpaceOnUse">
      <stop offset="0%" stop-color="#94A3B8" />
      <stop offset="100%" stop-color="#475569" />
    </linearGradient>
  </defs>

  <!-- Glass Bulb -->
  <path d="M 96 180 C 96 144 64 136 64 96 A 64 64 0 1 1 192 96 C 192 136 160 144 160 180 Z" 
        stroke="url(#glassStroke)" stroke-width="16" stroke-linecap="round" stroke-linejoin="round" />

  <!-- Base Socket / Threads (Thicker for favicon) -->
  <rect x="92" y="176" width="72" height="16" rx="6" fill="url(#baseGrad)" />
  <rect x="100" y="200" width="56" height="16" rx="6" fill="url(#baseGrad)" />
  <path d="M 112 224 L 144 224 L 136 244 L 120 244 Z" fill="#1E293B" />

  <!-- The AI Spark Core -->
  <path d="M 128 32 Q 128 96 184 96 Q 128 96 128 160 Q 128 96 72 96 Q 128 96 128 32 Z" fill="url(#sparkGrad)" />
  <path d="M 128 64 Q 128 96 160 96 Q 128 96 128 128 Q 128 96 96 96 Q 128 96 128 64 Z" fill="#FFFFFF" />
</svg>